<?xml version="1.0" encoding="UTF-8" standalone="no"?>
<svg
   xmlns:dc="http://purl.org/dc/elements/1.1/"
   xmlns:cc="http://creativecommons.org/ns#"
   xmlns:rdf="http://www.w3.org/1999/02/22-rdf-syntax-ns#"
   xmlns:svg="http://www.w3.org/2000/svg"
   xmlns="http://www.w3.org/2000/svg"
   id="svg3420"
   preserveAspectRatio="xMidYMid meet"
   viewBox="0 0 153.60001 153.6"
   height="192"
   width="192"
   version="1.0">
  <defs
     id="defs3442" />
  <metadata
     id="metadata3422">
Created by potrace 1.13, written by Peter Selinger 2001-2015
<rdf:RDF>
  <cc:Work
     rdf:about="">
    <dc:format>image/svg+xml</dc:format>
    <dc:type
       rdf:resource="http://purl.org/dc/dcmitype/StillImage" />
    <dc:title></dc:title>
  </cc:Work>
</rdf:RDF>
</metadata>
  <g
     style="fill:#ffffff;fill-opacity:1;stroke:none"
     id="g3424"
     transform="matrix(0.0120108,0,0,-0.0120108,-35.897257,163.10668)">
    <path
       style="fill:#ffffff;fill-opacity:1"
       id="path3426"
       d="m 9425,13493 c -38,-48 -319,-396 -624,-773 -305,-377 -563,-704 -573,-728 -46,-103 -30,-188 44,-243 45,-32 140,-65 213,-74 28,-3 60,-8 73,-11 l 22,-4 0,-510 0,-509 -42,-12 c -62,-16 -118,-50 -134,-81 -9,-17 -14,-58 -14,-107 l 0,-79 -37,-13 c -69,-22 -112,-49 -128,-79 -12,-22 -15,-66 -15,-194 l 0,-165 127,-103 c 303,-247 303,-247 303,-276 0,-15 -14,-146 -30,-292 -44,-387 -94,-840 -135,-1210 -19,-179 -39,-359 -45,-400 -6,-41 -26,-223 -45,-405 -19,-181 -39,-364 -45,-405 -6,-41 -24,-201 -41,-355 -16,-154 -45,-422 -64,-595 -19,-173 -39,-351 -45,-395 -6,-44 -29,-246 -51,-450 -40,-370 -94,-853 -127,-1145 -10,-85 -21,-160 -25,-166 -3,-6 -21,-14 -39,-18 -57,-11 -195,-84 -216,-113 -10,-16 -58,-149 -107,-298 -48,-148 -91,-275 -96,-281 -5,-6 -43,-17 -83,-24 l -75,-13 -108,84 c -200,156 -453,426 -569,607 -21,34 -41,62 -44,62 -3,0 -34,-51 -69,-112 -53,-92 -86,-134 -180,-230 -64,-66 -161,-158 -215,-206 -55,-48 -116,-103 -136,-123 -52,-51 -92,-77 -98,-61 -7,22 -30,12 -52,-22 -11,-19 -36,-48 -54,-64 l -33,-29 -69,12 c -198,36 -408,91 -509,135 -11,4 -38,15 -60,23 -67,25 -257,119 -312,154 -29,18 -57,33 -63,33 -5,0 -10,9 -10,20 0,11 -7,20 -16,20 -8,0 -12,5 -9,10 3,6 -3,10 -13,10 -11,0 -25,7 -32,15 -7,8 -16,15 -21,15 -4,0 -20,11 -34,24 -14,13 -38,26 -53,29 -43,10 -336,274 -415,376 -23,29 -50,62 -61,72 -10,10 -26,29 -35,42 -106,161 -165,243 -177,245 -8,2 -14,-1 -14,-6 0,-5 -24,-45 -53,-87 -28,-43 -56,-86 -62,-95 -38,-62 -344,-380 -366,-380 -20,0 -6,-31 29,-63 7,-7 21,-20 30,-29 9,-10 25,-18 35,-18 10,0 95,77 199,180 149,149 185,180 209,180 21,0 32,-7 44,-30 41,-80 122,-178 254,-311 161,-162 279,-248 465,-338 152,-74 202,-92 346,-130 25,-7 59,-17 76,-22 17,-5 39,-9 50,-9 28,0 73,-22 79,-39 19,-49 -94,-51 -400,-9 -38,5 -90,12 -115,15 -25,3 -49,9 -55,13 -5,4 -30,10 -55,14 -72,10 -305,93 -415,146 -94,46 -141,76 -257,164 -25,20 -48,36 -51,36 -7,0 -108,-68 -129,-87 -10,-9 -18,-20 -18,-24 0,-4 32,-40 72,-80 69,-70 74,-73 122,-75 113,-5 185,-23 301,-78 118,-56 147,-67 215,-83 138,-32 339,-64 417,-66 59,-1 83,-6 83,-14 0,-15 47,-18 52,-4 5,15 141,17 146,3 5,-15 59,-16 64,-1 2,7 46,13 113,15 144,6 223,14 363,37 80,13 83,12 60,-5 -67,-50 -360,-191 -423,-202 -12,-2 -31,-9 -41,-14 -35,-18 -98,-40 -194,-67 -52,-15 -124,-36 -160,-46 -120,-34 -243,-61 -276,-61 -27,0 -34,-4 -34,-19 0,-29 33,-37 170,-43 67,-3 127,-9 133,-13 17,-11 470,-12 562,-2 44,5 127,14 184,19 57,6 109,14 115,19 6,4 33,14 61,20 27,7 55,17 62,23 9,7 22,4 45,-10 33,-21 80,-38 173,-63 69,-19 523,-19 578,-1 20,8 37,17 37,20 0,9 -87,62 -101,62 -6,0 -7,5 -4,10 3,6 -1,10 -10,10 -15,0 -72,27 -85,40 -3,3 -22,14 -42,25 -21,11 -38,23 -38,27 0,5 -7,8 -15,8 -8,0 -15,4 -15,9 0,5 -15,12 -32,15 -90,19 102,51 257,43 127,-6 226,-27 299,-64 118,-60 290,-110 479,-138 285,-44 779,-34 1157,21 44,7 45,7 28,-13 -10,-11 -57,-40 -105,-65 -146,-77 -303,-137 -596,-228 -78,-24 -360,-92 -457,-111 -132,-25 -113,-31 145,-49 88,-6 204,-15 258,-20 128,-13 267,-13 397,0 242,25 370,43 448,66 79,23 84,23 115,7 18,-9 61,-27 97,-38 l 65,-22 -58,-34 c -117,-68 -143,-83 -212,-120 -101,-56 -346,-176 -375,-184 -14,-4 -32,-13 -40,-20 -8,-7 -37,-20 -65,-30 -27,-10 -54,-22 -60,-26 -5,-4 -53,-25 -106,-47 l -96,-40 -59,32 c -148,81 -227,127 -296,171 -171,111 -178,116 -308,217 -69,53 -163,134 -209,180 -91,89 -211,226 -211,240 0,19 -39,6 -55,-19 -17,-26 -124,-149 -185,-212 -33,-35 -188,-178 -236,-219 -80,-66 -400,-282 -420,-282 -8,0 -14,-7 -14,-15 0,-8 7,-15 15,-15 8,0 15,-4 15,-10 0,-5 7,-10 15,-10 20,0 95,-33 95,-41 0,-4 18,-10 40,-14 22,-4 40,-11 40,-16 0,-22 45,-4 146,60 183,117 377,287 477,419 22,28 43,52 47,52 4,0 54,-39 112,-88 391,-330 891,-616 1348,-773 123,-42 162,-58 145,-58 -78,-3 -378,50 -615,109 -321,80 -643,196 -857,311 -50,27 -96,49 -101,49 -5,0 -44,-23 -86,-51 -42,-27 -124,-73 -181,-101 -58,-28 -105,-57 -105,-64 0,-7 18,-15 40,-19 22,-4 42,-11 46,-16 3,-5 14,-9 25,-9 10,0 19,-4 19,-10 0,-5 11,-10 25,-10 14,0 25,-4 25,-10 0,-6 60,-9 153,-9 83,0 177,-5 207,-10 30,-6 93,-17 140,-25 47,-8 114,-27 149,-42 36,-14 84,-28 107,-30 24,-2 56,-9 71,-15 23,-9 251,-59 346,-76 15,-3 27,-9 27,-14 0,-5 15,-9 34,-9 46,0 226,-29 251,-41 11,-5 85,-18 165,-29 80,-11 155,-25 167,-32 12,-6 28,-8 35,-6 7,3 36,1 63,-4 28,-5 68,-11 90,-13 60,-6 178,-26 195,-33 8,-4 31,-7 50,-8 61,-3 351,-33 530,-54 188,-23 220,-24 220,-6 0,9 -8,16 -20,16 -11,0 -20,4 -20,9 0,5 -26,15 -57,21 -51,11 -275,78 -328,99 -11,5 -38,14 -60,20 -22,7 -49,16 -60,21 -11,4 -69,24 -130,45 -179,60 -248,85 -259,94 -6,4 -24,11 -40,15 -15,4 -47,15 -70,25 -22,10 -68,28 -101,41 -81,31 -168,70 -335,148 -43,20 -44,21 -15,21 17,1 81,10 144,21 63,11 118,17 122,14 5,-3 19,2 33,11 13,9 44,16 68,17 24,0 48,3 53,6 11,7 170,44 300,69 44,8 87,18 95,21 8,3 25,4 38,3 12,-1 22,2 22,7 0,5 17,13 38,16 33,6 119,30 250,70 27,9 42,10 42,3 0,-6 8,-3 18,6 10,10 23,17 28,17 6,0 28,9 50,19 21,11 66,24 99,31 33,7 83,16 110,22 63,12 219,16 265,7 19,-4 64,-12 99,-19 34,-6 91,-24 125,-40 33,-16 79,-36 101,-45 22,-9 49,-20 60,-25 34,-16 361,-85 415,-89 8,0 62,-3 120,-5 62,-3 106,-9 108,-15 5,-14 52,-14 52,-1 0,6 33,10 80,10 47,0 80,-4 80,-10 0,-13 43,-13 56,0 6,6 64,13 130,15 65,3 135,7 154,9 19,2 62,7 95,11 33,4 79,6 103,6 23,-1 42,3 42,9 0,5 15,10 33,10 l 32,0 -25,-20 c -14,-10 -43,-28 -65,-38 -136,-67 -213,-102 -221,-102 -6,0 -28,-9 -50,-19 -23,-11 -63,-25 -90,-32 -27,-6 -53,-15 -59,-19 -43,-30 -607,-174 -702,-179 -7,-1 -13,-7 -13,-15 0,-20 53,-36 116,-36 30,0 54,-4 54,-10 0,-5 9,-10 20,-10 11,0 20,4 20,8 0,5 28,4 63,-1 98,-15 659,-15 664,1 3,6 18,12 34,12 16,0 29,4 29,9 0,5 22,12 50,16 27,4 52,11 56,16 3,5 18,9 35,9 16,0 29,5 29,10 0,6 11,10 24,10 14,0 28,4 31,10 3,5 28,12 55,16 27,4 47,10 44,15 -3,5 6,9 20,9 14,0 27,4 31,9 3,6 25,13 50,16 25,4 46,13 50,22 6,18 9,16 -32,37 -30,15 -35,15 -75,-2 -82,-34 -242,-73 -373,-91 -83,-11 -339,-31 -391,-31 -56,1 -1,19 92,30 49,6 103,15 119,20 17,5 55,14 85,20 30,7 93,23 140,36 78,23 105,34 210,82 19,9 62,43 94,75 53,52 60,57 69,40 13,-23 115,-122 152,-148 29,-19 77,-22 83,-4 2,5 12,9 22,9 10,0 22,5 25,10 3,6 15,10 26,10 14,0 19,7 19,25 0,14 -6,25 -12,25 -7,0 -29,15 -48,34 -20,18 -45,36 -55,40 -36,11 -162,143 -192,199 -19,38 -7,47 62,47 28,0 55,4 60,9 10,9 21,11 198,32 53,7 97,16 97,21 0,4 25,8 55,8 30,0 55,5 55,10 0,6 15,10 33,10 17,0 59,7 92,15 33,8 72,14 88,15 15,0 27,4 27,9 0,5 19,11 43,14 23,3 74,12 112,21 39,9 87,19 108,22 20,4 37,11 37,15 0,5 12,9 27,9 14,0 51,7 82,16 31,9 74,20 96,26 22,5 48,14 57,19 10,5 42,12 72,15 31,4 53,11 50,15 -3,5 6,9 20,9 14,0 27,4 30,8 3,5 33,16 68,26 35,10 71,22 80,27 10,5 26,9 36,9 18,0 82,27 92,39 9,10 44,31 63,37 9,4 17,10 17,14 0,4 16,15 35,26 19,10 35,22 35,26 0,5 5,8 10,8 6,0 23,11 38,25 15,14 32,25 37,25 6,0 11,8 12,18 0,16 -106,112 -126,112 -5,0 -47,-23 -93,-52 -237,-147 -547,-270 -898,-357 -146,-36 -318,-67 -327,-58 -1,2 43,23 100,47 425,179 765,406 1112,741 67,66 126,119 131,119 5,0 22,-21 38,-46 44,-70 111,-150 208,-250 l 89,-92 29,29 c 15,16 31,29 35,29 4,0 12,6 19,13 7,6 31,27 54,46 23,18 42,38 42,43 0,13 -47,58 -60,58 -6,0 -45,35 -87,78 -105,106 -113,116 -113,129 0,6 -9,14 -20,18 -11,3 -27,19 -37,36 -9,16 -21,29 -25,29 -4,0 -14,13 -22,29 -8,15 -24,39 -36,52 -53,62 -70,85 -70,91 0,6 97,40 125,43 11,1 33,10 90,35 22,10 78,25 125,34 47,10 101,21 120,26 44,10 181,6 280,-9 91,-14 98,-16 180,-53 104,-48 128,-58 133,-58 13,0 105,104 101,114 -3,7 -30,20 -62,30 -98,29 -332,151 -425,220 -48,36 -89,66 -91,66 -2,0 -46,-27 -98,-59 -227,-143 -544,-268 -887,-351 -184,-45 -200,-48 -263,-54 -31,-3 -65,-8 -75,-11 -19,-6 31,19 82,41 277,117 450,212 695,381 134,93 352,278 480,407 77,78 110,101 110,77 0,-5 28,-47 61,-93 78,-105 230,-261 334,-343 85,-67 252,-175 269,-175 6,0 20,12 31,26 11,14 32,39 48,56 15,16 27,32 27,35 0,4 7,14 15,23 14,15 13,20 -6,43 -11,15 -28,27 -37,27 -10,0 -35,12 -57,27 -64,43 -264,212 -335,282 -104,105 -270,309 -329,404 -12,20 -28,37 -34,37 -7,0 -28,-24 -47,-52 -84,-124 -131,-181 -259,-308 -75,-74 -156,-152 -181,-172 -115,-96 -210,-167 -305,-228 -161,-104 -341,-213 -410,-247 -22,-12 -102,-53 -179,-91 -76,-39 -155,-77 -175,-83 -20,-6 -43,-17 -51,-24 -8,-7 -37,-20 -65,-30 -27,-10 -55,-22 -60,-26 -6,-4 -33,-16 -60,-27 -44,-17 -62,-19 -147,-11 -85,7 -106,13 -168,46 -40,21 -93,57 -118,81 -25,23 -48,42 -50,42 -2,0 -22,-13 -45,-28 -107,-72 -270,-146 -426,-193 l -74,-22 -44,22 c -24,11 -46,27 -48,34 -16,46 -112,309 -142,385 -68,179 -186,285 -333,301 l -55,6 -6,50 c -3,28 -23,174 -43,325 -64,474 -181,1363 -235,1785 -17,132 -36,269 -41,305 -6,36 -31,223 -56,415 -25,193 -60,465 -79,605 -19,140 -49,377 -69,525 -19,149 -42,320 -51,380 -8,61 -31,232 -50,380 -55,422 -103,790 -120,910 l -16,110 200,195 201,196 0,175 0,175 -27,33 c -19,21 -47,38 -83,50 l -55,18 -5,101 c -5,95 -7,103 -34,132 -27,28 -78,49 -159,65 l -27,5 2,481 3,481 65,20 c 78,24 159,75 190,119 15,21 25,51 28,86 7,83 -30,143 -280,458 -123,154 -391,493 -597,753 -205,260 -376,472 -380,472 -3,0 -37,-39 -76,-87 z m 181,-250 c 574,-875 736,-1124 733,-1128 -3,-2 -36,5 -74,16 -82,22 -240,52 -375,71 -125,17 -555,17 -680,0 -272,-37 -478,-82 -674,-146 -60,-20 -111,-35 -113,-33 -1,2 12,21 30,43 25,29 780,992 1009,1287 17,20 34,37 38,37 5,0 53,-66 106,-147 z m 290,-1194 c 116,-11 337,-49 426,-73 122,-33 220,-64 229,-73 6,-6 -18,-27 -65,-56 l -74,-47 -52,20 c -223,88 -618,138 -944,119 -243,-14 -540,-69 -740,-139 -33,-11 -65,-20 -73,-20 -27,0 -167,70 -157,79 13,13 179,64 320,100 137,35 379,77 510,90 131,12 494,13 620,0 z m -177,-245 61,-7 0,-483 0,-484 -37,0 c -219,0 -672,-36 -838,-66 -44,-8 -99,-17 -122,-20 l -43,-7 0,460 c 0,356 3,463 13,471 22,18 199,70 307,90 94,18 224,37 320,46 68,6 278,6 339,0 z m 382,-39 c 75,-20 160,-57 177,-77 9,-12 12,-117 10,-474 -3,-452 -3,-459 -23,-458 -21,1 -232,34 -252,40 -10,3 -13,110 -13,492 0,269 3,492 7,496 4,3 13,4 20,2 8,-3 41,-13 74,-21 z m -1,-1134 c 147,-18 293,-40 373,-57 25,-5 27,-9 27,-55 0,-33 -4,-49 -12,-49 -7,0 -58,9 -113,19 -495,96 -1141,92 -1644,-10 -51,-10 -97,-19 -103,-19 -5,0 -8,19 -6,41 3,40 5,42 48,55 115,35 427,83 630,98 30,2 186,2 345,1 216,-3 332,-9 455,-24 z m -95,-227 c 88,-8 207,-21 265,-30 139,-20 382,-72 393,-83 5,-5 9,-56 9,-113 l 0,-103 -33,1 c -19,0 -97,10 -174,22 -690,108 -1426,87 -1935,-55 -69,-20 -135,-38 -147,-40 -23,-5 -23,-4 -23,110 0,135 -10,123 126,162 277,81 620,133 979,149 115,5 369,-4 540,-20 z m -120,-794 c 116,-13 290,-49 311,-65 14,-10 28,-100 75,-476 125,-1009 150,-1221 145,-1226 -3,-3 -41,2 -84,10 -469,95 -1068,79 -1592,-42 -69,-16 -127,-27 -131,-26 -3,2 3,79 13,172 16,158 57,552 129,1263 17,168 34,308 38,312 14,14 360,66 546,81 96,8 468,6 550,-3 z m 429,-2211 c 5,-5 24,-154 42,-331 18,-178 35,-333 37,-346 3,-13 -1,-26 -8,-28 -14,-6 -165,13 -173,21 -7,6 -63,677 -58,690 4,13 146,7 160,-6 z m -179,-1193 c 148,-19 477,-85 491,-98 3,-3 9,-34 14,-69 17,-121 91,-665 165,-1224 42,-308 84,-625 96,-703 11,-79 18,-146 16,-148 -3,-3 -56,48 -118,112 -63,64 -150,145 -194,181 -119,95 -273,167 -320,150 -12,-5 -10,-17 11,-74 42,-112 102,-326 104,-373 0,-3 -209,-4 -465,-2 -490,5 -722,-4 -1040,-39 -207,-22 -470,-62 -600,-90 -49,-10 -92,-16 -96,-11 -4,4 43,506 105,1115 89,894 114,1110 126,1117 27,14 251,68 410,99 155,30 330,54 510,71 148,13 634,5 785,-14 z m 561,-2263 c 190,-208 379,-461 498,-670 127,-221 597,-567 901,-663 100,-32 105,-43 15,-35 -316,28 -564,102 -725,217 -72,51 -126,76 -213,100 -100,26 -304,29 -442,4 -160,-28 -412,-107 -560,-175 -80,-37 -77,-22 9,35 163,109 316,280 355,397 20,59 20,100 1,136 -43,84 -22,170 58,235 120,98 128,240 26,444 -25,50 -43,92 -38,92 4,0 56,-53 115,-117 z m -431,-203 c 76,-6 143,-14 148,-19 27,-27 -40,-380 -98,-516 l -13,-32 -452,-6 c -250,-4 -558,-7 -685,-7 l -232,0 -87,53 c -117,70 -187,129 -238,196 -23,31 -44,58 -46,61 -2,3 -12,-6 -21,-20 -59,-90 -148,-156 -319,-238 l -115,-54 -186,-2 -186,-1 1,57 c 1,43 10,75 36,130 68,143 199,234 375,264 49,8 153,26 233,39 306,52 629,87 965,104 207,11 715,6 920,-9 z m 1034,-147 c 69,-40 128,-108 171,-197 38,-80 76,-203 66,-214 -9,-8 -41,24 -125,125 -73,87 -231,305 -231,319 0,13 77,-8 119,-33 z M 6742,3251 c 158,-212 398,-406 663,-536 189,-93 312,-132 605,-193 40,-9 34,-10 -55,-11 -156,-2 -417,33 -610,80 -263,65 -536,194 -679,319 -43,39 -26,43 -160,-39 -82,-51 -253,-137 -287,-146 -26,-6 -47,8 -131,85 l -49,45 88,65 c 136,100 308,248 418,360 l 100,101 20,-27 c 11,-15 45,-62 77,-103 z m 1857,-4 c 105,-125 386,-244 647,-273 89,-10 100,-23 19,-24 -209,0 -542,65 -670,132 -26,14 -35,12 -135,-23 -189,-67 -433,-108 -755,-129 -194,-12 -195,-12 -195,-1 0,5 44,14 98,20 258,32 555,108 712,184 66,32 100,56 155,112 68,70 70,72 85,51 8,-11 26,-33 39,-49 z m 5340,-124 c -8,-10 -26,-31 -41,-47 -16,-16 -28,-33 -28,-38 0,-22 -315,-336 -332,-330 -5,1 -8,-2 -8,-8 0,-5 -5,-10 -11,-10 -5,0 -8,3 -5,8 2,4 -17,16 -42,25 -26,10 -55,23 -64,28 -10,5 -23,9 -29,9 -5,0 -35,11 -65,25 -30,14 -57,25 -61,25 -3,0 -31,12 -62,26 -81,38 -150,69 -200,90 l -44,18 114,19 c 63,9 132,19 154,20 22,2 50,9 63,16 12,6 42,13 65,15 23,1 49,5 57,9 16,6 161,38 295,64 44,8 87,18 95,21 51,18 103,30 134,31 26,1 27,-1 15,-16 z m -1368,-187 c 134,-69 368,-172 484,-212 174,-60 237,-84 215,-80 -14,3 -59,8 -100,11 -172,15 -462,77 -792,169 -84,23 -360,124 -372,136 -7,7 9,10 50,11 32,0 120,9 194,18 74,10 144,19 156,20 12,0 86,-32 165,-73 z m -2385,43 c 6,-10 -198,-219 -214,-219 -6,0 -17,16 -26,35 -22,45 -37,44 -64,-3 -34,-61 -120,-164 -153,-184 -100,-61 -355,-152 -559,-199 -175,-40 -171,-41 -244,35 -33,35 -74,86 -91,114 -16,29 -33,52 -37,52 -3,0 -16,-15 -28,-34 -11,-19 -36,-48 -55,-65 -40,-35 -42,-35 -240,0 -205,37 -459,114 -630,192 -83,37 -257,126 -268,137 -4,4 86,10 200,13 318,9 533,39 700,98 l 86,31 66,-31 c 144,-66 274,-86 561,-85 219,1 404,16 614,49 107,17 135,35 56,35 -80,0 -260,22 -260,32 0,12 578,9 586,-3 z M 5960,2746 c 68,-111 256,-216 478,-266 137,-31 -44,-17 -203,16 -88,19 -219,61 -260,85 -30,18 -32,18 -90,-6 -114,-46 -278,-80 -500,-104 -109,-12 -221,-13 -209,-2 5,5 63,18 129,30 325,58 532,143 594,245 13,20 26,36 31,36 5,0 18,-15 30,-34 z m 5191,-43 c 162,-81 226,-107 367,-147 373,-108 914,-126 1467,-49 123,17 218,19 269,5 l 28,-8 -36,-19 c -20,-11 -36,-23 -36,-27 0,-5 -7,-8 -15,-8 -8,0 -15,-4 -15,-10 0,-5 -11,-12 -25,-16 -14,-3 -25,-10 -25,-15 0,-5 -5,-9 -10,-9 -6,0 -21,-9 -33,-21 -12,-11 -34,-23 -49,-26 -15,-3 -25,-9 -22,-14 3,-5 -2,-9 -10,-9 -9,0 -16,-4 -16,-10 0,-5 -7,-10 -15,-10 -8,0 -15,-4 -15,-10 0,-5 -7,-7 -15,-4 -8,4 -15,1 -15,-5 0,-6 -6,-11 -14,-11 -8,0 -16,-3 -18,-7 -1,-5 -21,-17 -43,-28 -22,-10 -52,-27 -66,-36 -14,-10 -37,-21 -52,-24 -15,-4 -27,-11 -27,-16 0,-5 -6,-9 -13,-9 -7,0 -23,-9 -35,-20 -12,-11 -25,-19 -29,-18 -7,2 -119,-47 -165,-73 -10,-5 -25,-9 -33,-9 -8,0 -15,-4 -15,-9 0,-5 -13,-12 -30,-16 -16,-4 -32,-11 -35,-16 -4,-5 -15,-9 -26,-9 -10,0 -19,-4 -19,-10 0,-5 -7,-10 -15,-10 -8,0 -23,-4 -33,-10 -9,-5 -34,-16 -54,-25 -21,-8 -55,-22 -75,-30 -21,-9 -46,-20 -55,-25 -10,-6 -24,-10 -31,-10 -7,0 -32,-9 -55,-20 -23,-11 -56,-23 -72,-27 -17,-3 -30,-9 -30,-14 0,-5 -10,-9 -23,-9 -13,0 -27,-4 -32,-8 -6,-4 -37,-16 -70,-27 -33,-10 -64,-22 -69,-27 -6,-4 -17,-8 -26,-8 -8,0 -21,-9 -27,-19 -10,-16 -9,-20 3,-25 24,-9 123,-7 142,3 9,5 60,11 112,15 52,3 108,9 124,12 l 29,7 -28,-39 c -16,-21 -43,-51 -60,-66 l -32,-27 -74,13 c -386,69 -614,143 -889,285 -47,24 -95,49 -107,55 -13,6 -23,19 -23,29 0,9 -7,17 -15,17 -8,0 -15,4 -15,9 0,5 -8,11 -17,13 -10,2 16,7 59,11 91,9 192,28 269,51 l 55,16 65,-29 c 35,-16 89,-34 119,-40 105,-23 289,-31 455,-21 235,15 575,68 575,89 0,5 -46,11 -102,14 -364,23 -740,156 -957,338 -66,56 -151,155 -151,177 0,7 -7,12 -15,12 -8,0 -15,-6 -15,-14 0,-19 -95,-115 -153,-155 -77,-53 -251,-135 -389,-185 -70,-25 -132,-46 -138,-46 -28,0 -310,263 -310,289 0,4 64,31 143,60 78,29 198,78 267,109 165,73 201,82 341,79 l 117,-2 123,-62 z m 949,51 c 25,-9 54,-20 65,-24 11,-5 34,-11 50,-13 17,-3 39,-7 50,-10 11,-3 47,-12 80,-20 33,-8 103,-23 155,-33 52,-9 102,-20 110,-24 8,-4 85,-20 170,-35 85,-15 164,-31 175,-35 11,-5 29,-11 40,-13 11,-3 -47,-5 -130,-6 -141,-1 -243,10 -370,39 -116,26 -335,113 -425,168 -42,26 -32,28 30,6 z M 9947,2452 c 60,-104 271,-329 393,-418 283,-209 510,-307 915,-395 l 60,-13 -40,-7 c -37,-7 -229,3 -320,16 -341,49 -559,111 -778,221 -79,40 -233,142 -262,174 -10,11 -22,20 -26,20 -4,0 -36,-20 -71,-43 -182,-126 -531,-270 -858,-355 -154,-40 -398,-88 -406,-79 -2,2 47,25 109,52 441,190 780,417 1127,753 63,61 120,111 125,112 6,0 20,-17 32,-38 z m 1249,-57 c 53,-113 265,-219 519,-260 164,-27 174,-35 35,-30 -201,8 -392,47 -507,102 l -52,26 -73,-27 c -97,-35 -222,-63 -377,-86 -116,-17 -127,-17 -144,-2 -16,15 -9,18 110,48 218,55 376,135 437,221 16,24 31,43 32,43 2,0 11,-16 20,-35 z m -2381,-34 c 19,-60 204,-185 328,-221 47,-14 57,-32 22,-38 -29,-6 -194,36 -282,71 l -81,33 -46,-17 c -155,-61 -533,-122 -736,-118 l -55,1 60,13 c 33,7 107,21 165,30 251,41 473,127 552,215 47,53 64,60 73,31 z m 658,-25 c -10,-13 -29,-31 -43,-40 -14,-8 -43,-31 -64,-50 -22,-20 -47,-38 -57,-41 -19,-6 -219,90 -219,105 0,5 35,11 78,15 42,4 124,12 182,20 155,19 144,19 123,-9 z" />
    <path
       style="fill:#ffffff;fill-opacity:1"
       id="path3428"
       d="m 9047,9039 c -38,-4 -70,-9 -72,-11 -7,-7 -48,-728 -42,-734 7,-7 160,15 176,25 5,3 14,139 20,302 14,385 14,429 -1,428 -7,-1 -44,-5 -81,-10 z" />
    <path
       style="fill:#ffffff;fill-opacity:1"
       id="path3430"
       d="m 8730,5238 c -36,-5 -68,-12 -72,-16 -9,-9 -66,-540 -70,-647 -2,-51 0,-70 10,-69 6,1 42,2 80,3 37,1 72,5 79,9 7,4 19,107 32,282 36,478 35,450 20,449 -8,-1 -43,-6 -79,-11 z" />
    <path
       style="fill:#ffffff;fill-opacity:1"
       id="path3432"
       d="m 12355,9724 c -154,-25 -266,-67 -377,-141 -198,-132 -338,-333 -382,-546 -46,-220 -46,-1047 -1,-1286 59,-310 320,-582 641,-668 85,-23 120,-26 249,-27 110,0 168,4 219,17 267,67 462,222 583,462 32,62 93,235 93,261 0,12 -33,14 -204,14 l -205,0 -38,-72 c -46,-89 -147,-195 -220,-232 -201,-101 -444,-61 -599,100 -113,118 -140,213 -155,545 -13,269 1,667 25,782 85,389 584,531 854,243 52,-56 105,-143 126,-208 5,-16 24,-18 211,-18 159,0 205,3 205,13 0,37 -47,174 -90,262 -90,185 -227,327 -395,411 -126,62 -222,84 -380,89 -71,2 -143,1 -160,-1 z" />
    <path
       style="fill:#ffffff;fill-opacity:1"
       id="path3434"
       d="m 13663,8763 c 4,-1020 2,-980 56,-1136 89,-255 334,-473 616,-549 118,-31 355,-31 478,0 304,76 546,300 631,582 44,144 46,201 46,1148 l 0,902 -195,0 -194,0 -3,-917 -3,-918 -28,-82 c -72,-213 -258,-343 -492,-343 -246,0 -432,143 -502,385 -16,55 -18,142 -21,968 l -3,907 -195,0 -195,0 4,-947 z" />
    <path
       style="fill:#ffffff;fill-opacity:1"
       id="path3436"
       d="m 4195,9680 c -16,-25 -923,-2605 -919,-2612 3,-4 97,-8 208,-8 l 204,0 97,290 97,290 478,0 478,0 87,-257 c 49,-142 94,-273 101,-290 l 13,-33 200,0 c 110,0 202,4 205,8 4,7 -904,2587 -919,2612 -8,13 -322,13 -330,0 z m 345,-1102 c 95,-299 175,-549 178,-555 3,-10 -72,-13 -358,-13 -285,0 -361,3 -357,13 2,6 83,256 178,555 96,298 177,542 180,542 3,0 83,-244 179,-542 z" />
    <path
       style="fill:#ffffff;fill-opacity:1"
       id="path3438"
       d="m 5762,8733 3,-958 23,-79 c 48,-166 115,-278 233,-392 86,-81 142,-122 239,-169 237,-118 559,-120 807,-5 236,109 395,295 467,544 42,144 47,280 44,1181 l -3,830 -195,0 -195,0 -5,-920 -5,-920 -23,-65 c -76,-213 -248,-330 -481,-330 -162,1 -251,34 -356,132 -74,68 -103,115 -136,213 l -24,70 -5,910 -5,910 -193,3 -193,2 3,-957 z" />
  </g>
</svg>
